<svg width="42" height="42" viewBox="0 0 42 42" fill="none" xmlns="http://www.w3.org/2000/svg">
<path d="M29.1667 10.5C29.7855 10.5 30.379 10.7458 30.8166 11.1834C31.2542 11.621 31.5 12.2145 31.5 12.8333V29.1667C31.5 29.7855 31.2542 30.379 30.8166 30.8166C30.379 31.2542 29.7855 31.5 29.1667 31.5H12.8333C12.2145 31.5 11.621 31.2542 11.1834 30.8166C10.7458 30.379 10.5 29.7855 10.5 29.1667V12.8333C10.5 12.2145 10.7458 11.621 11.1834 11.1834C11.621 10.7458 12.2145 10.5 12.8333 10.5H29.1667ZM28.5833 28.5833V22.4C28.5833 21.3913 28.1826 20.4239 27.4694 19.7106C26.7561 18.9974 25.7887 18.5967 24.78 18.5967C23.7883 18.5967 22.6333 19.2033 22.0733 20.1133V18.8183H18.8183V28.5833H22.0733V22.8317C22.0733 21.9333 22.7967 21.1983 23.695 21.1983C24.1282 21.1983 24.5436 21.3704 24.8499 21.6767C25.1562 21.983 25.3283 22.3985 25.3283 22.8317V28.5833H28.5833ZM15.0267 16.9867C15.5465 16.9867 16.045 16.7802 16.4126 16.4126C16.7802 16.045 16.9867 15.5465 16.9867 15.0267C16.9867 13.9417 16.1117 13.055 15.0267 13.055C14.5037 13.055 14.0022 13.2627 13.6325 13.6325C13.2627 14.0022 13.055 14.5037 13.055 15.0267C13.055 16.1117 13.9417 16.9867 15.0267 16.9867ZM16.6483 28.5833V18.8183H13.4167V28.5833H16.6483Z" fill="white"/>
</svg>
