<svg width="42" height="42" viewBox="0 0 42 42" fill="none" xmlns="http://www.w3.org/2000/svg">
<path fill-rule="evenodd" clip-rule="evenodd" d="M20 10C21.026 10 22.0784 10.0275 23.0984 10.0725L24.3032 10.1325L25.4564 10.2038L26.5364 10.28L27.5228 10.36C28.5934 10.4449 29.601 10.9205 30.3679 11.7033C31.1349 12.486 31.6122 13.5255 31.7156 14.6388L31.7636 15.17L31.8536 16.3075C31.9376 17.4862 32 18.7712 32 20C32 21.2288 31.9376 22.5138 31.8536 23.6925L31.7636 24.83L31.7156 25.3612C31.6121 26.4747 31.1347 27.5144 30.3675 28.2971C29.6003 29.0799 28.5924 29.5554 27.5216 29.64L26.5376 29.7188L25.4576 29.7962L24.3032 29.8675L23.0984 29.9275C22.0662 29.9741 21.0332 29.9982 20 30C18.9668 29.9982 17.9338 29.9741 16.9016 29.9275L15.6968 29.8675L14.5436 29.7962L13.4636 29.7188L12.4772 29.64C11.4066 29.5551 10.399 29.0795 9.63205 28.2967C8.86507 27.514 8.38783 26.4745 8.2844 25.3612L8.2364 24.83L8.1464 23.6925C8.055 22.4639 8.00617 21.2323 8 20C8 18.7712 8.0624 17.4862 8.1464 16.3075L8.2364 15.17L8.2844 14.6388C8.38779 13.5257 8.86485 12.4863 9.6316 11.7036C10.3983 10.9209 11.4056 10.4451 12.476 10.36L13.4612 10.28L14.5412 10.2038L15.6956 10.1325L16.9004 10.0725C17.933 10.0259 18.9664 10.0017 20 10ZM17.6 16.9688V23.0312C17.6 23.6088 18.2 23.9688 18.68 23.6812L23.72 20.65C23.8297 20.5842 23.9208 20.4895 23.9841 20.3754C24.0475 20.2613 24.0808 20.1318 24.0808 20C24.0808 19.8682 24.0475 19.7387 23.9841 19.6246C23.9208 19.5105 23.8297 19.4158 23.72 19.35L18.68 16.32C18.5705 16.2542 18.4463 16.2195 18.3199 16.2195C18.1935 16.2195 18.0693 16.2542 17.9598 16.3201C17.8503 16.386 17.7594 16.4808 17.6963 16.5948C17.6331 16.7089 17.5999 16.8383 17.6 16.97V16.9688Z" fill="white"/>
</svg>
